<mxfile host="app.diagrams.net" modified="2024-04-10T11:12:06.909Z" agent="Mozilla/5.0 (Windows NT 10.0; Win64; x64) AppleWebKit/537.36 (KHTML, like Gecko) Chrome/123.0.0.0 Safari/537.36" version="24.2.3" etag="e_cm5usie4BHatqVCtxc" type="github">
  <diagram name="Page-1" id="jKUJC0ENUwLkXl9G8w6X">
    <mxGraphModel>
      <root>
        <mxCell id="0" />
        <mxCell id="1" parent="0" />
      </root>
    </mxGraphModel>
  </diagram>
</mxfile>
